# xmcd
#
# Track frame offsets:
#	150
#	21227
#	35807
#	67319
#	86232
#	108227
#	136162
#	155069
#	177714
#	199578
#	219693
#	239063
#	262963
#	283063
#	303508
#
# Disc length: 4407
#
# Revision: 1
# Processed by: cddbd v1.5.1PL0 Copyright (c) Steve Scherf et al.
# Submitted via: ExactAudioCopy v0.90b2
# Normalized: r0:DSETVAR1,TDELIM( - )
#
DISCID=ef11350f
DTITLE=Various Artist - BLUES PLANET Evening
DYEAR=1999
DGENRE=Blues
TTITLE0=Otis Rush - Little Red Rooster
TTITLE1=Peter Green - Apostle
TTITLE2=Albert Collins - Lights Are On But Nobody's Home
TTITLE3=Dave  Hole - Albatross
TTITLE4=Duke  Robillard - Glamour Girl
TTITLE5=Tinsley Ellis - Early In The Morning
TTITLE6=Clarence Brown - Better Off With The Blues
TTITLE7=Lonnie Mack - Falling Back In Love With You
TTITLE8=Ronnie Earl - Through Floods Storms
TTITLE9=Bob Margolin - Going Home
TTITLE10=John Campbell - Angel Of Sorrow
TTITLE11=Koko Taylor - I Cried A Baby
TTITLE12=Junior Wells - Don't You Lie To Me
TTITLE13=C.J.Chenier - Richest Man
TTITLE14=Luther Allison - Just Memories
EXTD=
EXTT0=
EXTT1=
EXTT2=
EXTT3=
EXTT4=
EXTT5=
EXTT6=
EXTT7=
EXTT8=
EXTT9=
EXTT10=
EXTT11=
EXTT12=
EXTT13=
EXTT14=
PLAYORDER=
